<svg width="256" height="245" viewBox="0 0 256 245" fill="none" xmlns="http://www.w3.org/2000/svg">
<path d="M256 116C256 179.513 204.513 231 141 231C77.4873 231 26 179.513 26 116C26 52.4873 77.4873 1 141 1C204.513 1 256 52.4873 256 116ZM35.6899 116C35.6899 174.161 82.8389 221.31 141 221.31C199.161 221.31 246.31 174.161 246.31 116C246.31 57.8389 199.161 10.6899 141 10.6899C82.8389 10.6899 35.6899 57.8389 35.6899 116Z" fill="#B71C1C"/>
<rect x="85.5" y="185.5" width="59" height="59" rx="29.5" fill="#F6F8FB"/>
<rect x="85.5" y="185.5" width="59" height="59" rx="29.5" stroke="#ECECEC"/>
<path d="M110.48 208.605C109.615 208.605 108.877 208.301 108.268 207.692C107.66 207.083 107.355 206.345 107.355 205.479C107.355 204.614 107.66 203.878 108.268 203.269C108.877 202.66 109.615 202.355 110.48 202.355C111.224 202.355 111.874 202.594 112.432 203.07C112.99 203.547 113.367 204.142 113.562 204.855H122.019C122.197 204.855 122.345 204.915 122.464 205.034C122.584 205.153 122.644 205.302 122.644 205.48C122.644 205.653 122.577 205.787 122.443 205.883C122.31 205.978 122.168 206.052 122.018 206.105H121.393V207.98C121.393 208.158 121.333 208.306 121.214 208.425C121.095 208.545 120.946 208.605 120.768 208.605C120.59 208.605 120.442 208.545 120.323 208.425C120.204 208.305 120.144 208.157 120.143 207.98V206.105H113.562C113.367 206.818 112.99 207.413 112.432 207.889C111.873 208.366 111.223 208.604 110.48 208.604M111.803 206.804C112.171 206.436 112.355 205.994 112.355 205.479C112.355 204.965 112.171 204.524 111.803 204.157C111.435 203.788 110.995 203.604 110.48 203.604C109.965 203.604 109.524 203.788 109.157 204.157C108.789 204.524 108.605 204.965 108.605 205.479C108.605 205.994 108.789 206.436 109.157 206.804C109.524 207.171 109.965 207.354 110.48 207.354C110.995 207.354 111.436 207.171 111.803 206.804ZM111.443 220.867C111.635 220.675 111.73 220.45 111.73 220.192C111.73 219.933 111.635 219.708 111.443 219.517C111.251 219.325 111.026 219.229 110.768 219.229C110.51 219.229 110.285 219.325 110.094 219.517C109.903 219.708 109.808 219.933 109.807 220.192C109.807 220.45 109.903 220.675 110.094 220.867C110.286 221.058 110.511 221.154 110.769 221.153C111.028 221.152 111.252 221.058 111.443 220.867ZM119.904 220.865C120.096 220.674 120.192 220.449 120.192 220.19C120.192 219.933 120.096 219.709 119.904 219.518C119.713 219.327 119.488 219.231 119.229 219.23C118.971 219.23 118.746 219.325 118.555 219.518C118.365 219.71 118.269 219.935 118.268 220.192C118.267 220.448 118.363 220.673 118.555 220.867C118.748 221.06 118.973 221.155 119.23 221.153C119.488 221.15 119.713 221.055 119.904 220.865ZM108.749 223.315V225.19C108.749 225.369 108.69 225.518 108.57 225.638C108.451 225.758 108.303 225.818 108.124 225.817C107.946 225.816 107.797 225.756 107.678 225.638C107.559 225.52 107.499 225.371 107.499 225.192V218.343C107.499 218.23 107.506 218.117 107.519 218.005C107.532 217.894 107.559 217.784 107.6 217.675L109.095 213.417C109.23 213.013 109.468 212.688 109.809 212.439C110.151 212.191 110.544 212.067 110.989 212.067H119.009C119.454 212.067 119.848 212.191 120.189 212.439C120.531 212.688 120.769 213.013 120.903 213.417L122.398 217.674C122.44 217.783 122.467 217.894 122.48 218.005C122.493 218.117 122.499 218.23 122.499 218.343V225.192C122.499 225.369 122.44 225.518 122.32 225.638C122.201 225.758 122.053 225.818 121.874 225.817C121.696 225.816 121.547 225.756 121.428 225.638C121.309 225.52 121.249 225.371 121.249 225.192V223.317L108.749 223.315ZM109.129 217.065H120.869L119.729 213.822C119.682 213.661 119.594 213.536 119.465 213.448C119.337 213.36 119.185 213.316 119.009 213.317H110.989C110.813 213.317 110.661 213.36 110.533 213.448C110.405 213.536 110.317 213.661 110.269 213.822L109.129 217.065ZM108.749 222.065H121.249V218.315H108.749V222.065Z" fill="black"/>
<rect x="52.5" y="0.5" width="59" height="59" rx="29.5" fill="#F6F8FB"/>
<rect x="52.5" y="0.5" width="59" height="59" rx="29.5" stroke="#ECECEC"/>
<path fill-rule="evenodd" clip-rule="evenodd" d="M82.0011 41.4846L82.9025 40.4689C83.9254 39.2984 84.8459 38.1846 85.664 37.1275L86.3397 36.236C89.1616 32.4351 90.5725 29.4194 90.5725 27.1889C90.5725 22.4289 86.7354 18.5703 82.0011 18.5703C77.2668 18.5703 73.4297 22.4289 73.4297 27.1889C73.4297 29.4194 74.8406 32.4356 77.6625 36.2375L78.3383 37.1289C79.5062 38.625 80.7279 40.0769 82.0011 41.4846Z" stroke="black" stroke-width="1.42857" stroke-linecap="round" stroke-linejoin="round"/>
<path d="M82.0011 30.7132C83.9736 30.7132 85.5725 29.1142 85.5725 27.1417C85.5725 25.1693 83.9736 23.5703 82.0011 23.5703C80.0287 23.5703 78.4297 25.1693 78.4297 27.1417C78.4297 29.1142 80.0287 30.7132 82.0011 30.7132Z" stroke="black" stroke-width="1.42857" stroke-linecap="round" stroke-linejoin="round"/>
<rect x="0.5" y="109.5" width="59" height="59" rx="29.5" fill="#F6F8FB"/>
<rect x="0.5" y="109.5" width="59" height="59" rx="29.5" stroke="#ECECEC"/>
<path d="M23.927 140.032C25.0145 140.032 25.897 140.917 25.897 142.009C25.897 143.101 25.0145 143.986 23.927 143.986C23.4037 143.985 22.9022 143.776 22.5328 143.405C22.1635 143.034 21.9564 142.532 21.957 142.009V142.006C21.957 141.483 22.1644 140.982 22.5337 140.611C22.903 140.241 23.4041 140.033 23.927 140.032Z" stroke="black" stroke-width="0.625" stroke-linecap="round" stroke-linejoin="round"/>
<path d="M23.9303 137.897C21.6691 137.897 19.8359 139.737 19.8359 142.007V142.307C20.0016 144.558 21.8634 146.37 23.9297 148.713C26.0878 146.266 28.0247 144.414 28.0247 142.006C28.0247 139.738 26.1916 137.897 23.9303 137.897ZM32.4028 129.285L30.2516 134.355L28.1003 129.285L30.2516 130.151L32.4028 129.285Z" stroke="black" stroke-width="0.625" stroke-linecap="round" stroke-linejoin="round"/>
<path d="M41.2633 136.747C36.257 138.824 30.6645 141.884 26.6133 145.729M30.2508 134.355H41.2595" stroke="black" stroke-width="0.625" stroke-linecap="round" stroke-linejoin="round"/>
<path d="M20.9375 127.438H39.0625C40.4475 127.438 41.5625 128.552 41.5625 129.938V148.062C41.5625 149.448 40.4475 150.562 39.0625 150.562H20.9375C19.5525 150.562 18.4375 149.448 18.4375 148.062V129.938C18.4375 128.552 19.5525 127.438 20.9375 127.438Z" stroke="black" stroke-width="0.625" stroke-linecap="round" stroke-linejoin="round"/>
</svg>
