<svg width="30" height="30" viewBox="0 0 30 30" fill="none" xmlns="http://www.w3.org/2000/svg">
<path d="M6.5625 13.1242C6.13758 13.1242 5.72526 13.2686 5.39312 13.5336C5.06098 13.7987 4.82871 14.1686 4.73438 14.583L3.81563 18.2542C3.77178 18.4156 3.74971 18.582 3.75 18.7492V22.4992C3.7491 23.4126 4.08158 24.2949 4.68504 24.9805C5.2885 25.6662 6.12145 26.108 7.02755 26.223C7.93364 26.3381 8.85059 26.1185 9.60627 25.6055C10.362 25.0925 10.9044 24.3213 11.1319 23.4367H18.8681C19.0955 24.321 19.6377 25.092 20.393 25.605C21.1483 26.118 22.0648 26.3379 22.9706 26.2233C23.8764 26.1087 24.7093 25.6676 25.3131 24.9826C25.9169 24.2977 26.25 23.416 26.25 22.503V19.6886C26.2504 19.2489 26.0963 18.823 25.8146 18.4854C25.5329 18.1478 25.1414 17.92 24.7088 17.8417L20.7581 17.0505L18.3881 13.8911C18.2143 13.6538 17.9871 13.4608 17.7249 13.3276C17.4627 13.1944 17.1729 13.1247 16.8788 13.1242H6.5625ZM5.625 22.4992C5.625 22.0019 5.82255 21.525 6.17418 21.1734C6.52581 20.8218 7.00272 20.6242 7.5 20.6242C7.99728 20.6242 8.4742 20.8218 8.82583 21.1734C9.17746 21.525 9.375 22.0019 9.375 22.4992C9.375 22.9965 9.17746 23.4734 8.82583 23.825C8.4742 24.1767 7.99728 24.3742 7.5 24.3742C7.00272 24.3742 6.52581 24.1767 6.17418 23.825C5.82255 23.4734 5.625 22.9965 5.625 22.4992ZM20.625 22.4992C20.625 22.0019 20.8225 21.525 21.1742 21.1734C21.5258 20.8218 22.0027 20.6242 22.5 20.6242C22.9973 20.6242 23.4742 20.8218 23.8258 21.1734C24.1775 21.525 24.375 22.0019 24.375 22.4992C24.375 22.9965 24.1775 23.4734 23.8258 23.825C23.4742 24.1767 22.9973 24.3742 22.5 24.3742C22.0027 24.3742 21.5258 24.1767 21.1742 23.825C20.8225 23.4734 20.625 22.9965 20.625 22.4992ZM22.5 1.62109C22.2205 1.62085 21.9436 1.67573 21.6853 1.78259C21.427 1.88945 21.1923 2.04619 20.9946 2.24386C20.797 2.44152 20.6402 2.67622 20.5334 2.93453C20.4265 3.19284 20.3716 3.46968 20.3719 3.74922C20.3728 3.85613 20.3828 3.96277 20.4019 4.06797L16.5188 6.00859C16.321 5.80632 16.0847 5.64571 15.8239 5.53622C15.563 5.42673 15.2829 5.37058 15 5.37109C14.7205 5.37085 14.4436 5.42573 14.1853 5.53259C13.927 5.63945 13.6923 5.79619 13.4946 5.99386C13.297 6.19152 13.1402 6.42622 13.0334 6.68453C12.9265 6.94284 12.8716 7.21968 12.8719 7.49922C12.8716 7.77876 12.9265 8.0556 13.0334 8.31391C13.1402 8.57222 13.297 8.80692 13.4946 9.00458C13.6923 9.20224 13.927 9.35899 14.1853 9.46585C14.4436 9.57271 14.7205 9.62759 15 9.62735C15.2826 9.6276 15.5623 9.57134 15.8229 9.46185C16.0834 9.35237 16.3193 9.19189 16.5169 8.98984L20.4 10.9305C20.3809 11.0357 20.3709 11.1423 20.37 11.2492C20.3698 11.5289 20.4247 11.8059 20.5317 12.0643C20.6387 12.3228 20.7956 12.5576 20.9934 12.7552C21.1913 12.9529 21.4262 13.1096 21.6847 13.2164C21.9433 13.3231 22.2203 13.3778 22.5 13.3773C22.7795 13.3776 23.0564 13.3227 23.3147 13.2159C23.573 13.109 23.8077 12.9522 24.0054 12.7546C24.203 12.5569 24.3598 12.3222 24.4666 12.0639C24.5735 11.8056 24.6284 11.5288 24.6281 11.2492C24.6284 10.9697 24.5735 10.6928 24.4666 10.4345C24.3598 10.1762 24.203 9.94152 24.0054 9.74386C23.8077 9.54619 23.573 9.38945 23.3147 9.28259C23.0564 9.17572 22.7795 9.12085 22.5 9.12109C22.2174 9.12083 21.9377 9.1771 21.6772 9.28658C21.4167 9.39607 21.1807 9.55655 20.9831 9.75859L17.1 7.81797C17.1184 7.71272 17.1279 7.60608 17.1281 7.49922C17.1272 7.39231 17.1172 7.28567 17.0981 7.18047L20.9794 5.23984C21.1774 5.44234 21.4139 5.60309 21.6751 5.71258C21.9363 5.82208 22.2168 5.87811 22.5 5.87734C22.7795 5.87759 23.0564 5.82271 23.3147 5.71585C23.573 5.60899 23.8077 5.45224 24.0054 5.25458C24.203 5.05692 24.3598 4.82222 24.4666 4.56391C24.5735 4.3056 24.6284 4.02876 24.6281 3.74922C24.6284 3.46968 24.5735 3.19284 24.4666 2.93453C24.3598 2.67622 24.203 2.44152 24.0054 2.24386C23.8077 2.04619 23.573 1.88945 23.3147 1.78259C23.0564 1.67573 22.7795 1.62085 22.5 1.62109Z" fill="#D31510"/>
</svg>
