<svg width="20" height="25" viewBox="0 0 20 25" fill="none" xmlns="http://www.w3.org/2000/svg">
<path fill-rule="evenodd" clip-rule="evenodd" d="M10 0C4.4775 0 0 5.00375 0 10.625C0 16.2025 3.19125 22.265 8.17125 24.5925C8.74365 24.8605 9.36796 24.9994 10 24.9994C10.632 24.9994 11.2564 24.8605 11.8288 24.5925C16.8088 22.265 20 16.2025 20 10.625C20 5.00375 15.5225 0 10 0ZM10 12.5C10.663 12.5 11.2989 12.2366 11.7678 11.7678C12.2366 11.2989 12.5 10.663 12.5 10C12.5 9.33696 12.2366 8.70107 11.7678 8.23223C11.2989 7.76339 10.663 7.5 10 7.5C9.33696 7.5 8.70107 7.76339 8.23223 8.23223C7.76339 8.70107 7.5 9.33696 7.5 10C7.5 10.663 7.76339 11.2989 8.23223 11.7678C8.70107 12.2366 9.33696 12.5 10 12.5Z" fill="#B71C1C"/>
</svg>
