<svg width="49" height="54" viewBox="0 0 49 54" fill="none" xmlns="http://www.w3.org/2000/svg">
<path d="M24.375 21.875C26.7325 21.875 27.91 21.875 28.6425 22.6075C29.375 23.34 29.375 24.5175 29.375 26.875M24.375 21.875C22.0175 21.875 20.84 21.875 20.1075 22.6075C19.375 23.34 19.375 24.5175 19.375 26.875M24.375 21.875C24.375 16.875 26.4575 6.875 36.875 6.875M29.375 26.875C29.375 29.2325 29.375 30.41 28.6425 31.1425C27.91 31.875 26.7325 31.875 24.375 31.875M29.375 26.875H41.875M19.375 26.875C19.375 29.2325 19.375 30.41 20.1075 31.1425C20.84 31.875 22.0175 31.875 24.375 31.875M19.375 26.875H6.875M24.375 31.875C24.375 36.875 22.2925 46.875 11.875 46.875M36.875 6.875C36.875 4.5175 36.875 3.34 37.6075 2.6075C38.34 1.875 39.5175 1.875 41.875 1.875C44.2325 1.875 45.41 1.875 46.1425 2.6075C46.875 3.34 46.875 4.5175 46.875 6.875C46.875 9.2325 46.875 10.41 46.1425 11.1425C45.41 11.875 44.2325 11.875 41.875 11.875C39.5175 11.875 38.34 11.875 37.6075 11.1425C36.875 10.41 36.875 9.2325 36.875 6.875ZM11.875 46.875C11.875 44.5175 11.875 43.34 11.1425 42.6075C10.41 41.875 9.2325 41.875 6.875 41.875C4.5175 41.875 3.34 41.875 2.6075 42.6075C1.875 43.34 1.875 44.5175 1.875 46.875C1.875 49.2325 1.875 50.41 2.6075 51.1425C3.34 51.875 4.5175 51.875 6.875 51.875C9.2325 51.875 10.41 51.875 11.1425 51.1425C11.875 50.41 11.875 49.2325 11.875 46.875Z" stroke="#B71C1C" stroke-width="3.75" stroke-linecap="round" stroke-linejoin="round"/>
</svg>
