<svg width="28" height="27" viewBox="0 0 28 27" fill="none" xmlns="http://www.w3.org/2000/svg">
<path d="M1.25 26.25C0.895833 26.25 0.599167 26.13 0.36 25.89C0.120833 25.65 0.000833333 25.3533 0 25V15L2.65625 8.65625C2.80208 8.30208 3.03125 8.02083 3.34375 7.8125C3.65625 7.60417 4 7.5 4.375 7.5H15.625C16 7.5 16.3438 7.60417 16.6562 7.8125C16.9688 8.02083 17.1979 8.30208 17.3438 8.65625L20 15V25C20 25.3542 19.88 25.6512 19.64 25.8912C19.4 26.1312 19.1033 26.2508 18.75 26.25H17.5C17.1458 26.25 16.8492 26.13 16.61 25.89C16.3708 25.65 16.2508 25.3533 16.25 25V23.75H3.75V25C3.75 25.3542 3.63 25.6512 3.39 25.8912C3.15 26.1312 2.85333 26.2508 2.5 26.25H1.25ZM3.5 12.5H16.4688L15.4375 10H4.5625L3.5 12.5ZM2.5 21.25H17.5V15H2.5V21.25ZM6.95375 19.4538C7.31792 19.0887 7.5 18.6458 7.5 18.125C7.5 17.6042 7.31792 17.1617 6.95375 16.7975C6.58958 16.4333 6.14667 16.2508 5.625 16.25C5.10333 16.2492 4.66083 16.4317 4.2975 16.7975C3.93417 17.1633 3.75167 17.6058 3.75 18.125C3.74833 18.6442 3.93083 19.0871 4.2975 19.4538C4.66417 19.8204 5.10667 20.0025 5.625 20C6.14333 19.9975 6.58625 19.8154 6.95375 19.4538ZM15.7037 19.4538C16.0679 19.0887 16.25 18.6458 16.25 18.125C16.25 17.6042 16.0679 17.1617 15.7037 16.7975C15.3396 16.4333 14.8967 16.2508 14.375 16.25C13.8533 16.2492 13.4108 16.4317 13.0475 16.7975C12.6842 17.1633 12.5017 17.6058 12.5 18.125C12.4983 18.6442 12.6808 19.0871 13.0475 19.4538C13.4142 19.8204 13.8567 20.0025 14.375 20C14.8933 19.9975 15.3362 19.8154 15.7037 19.4538ZM21.25 22.5V11.75L18.9688 6.25H5.84375L6.40625 4.90625C6.55208 4.55208 6.78125 4.27083 7.09375 4.0625C7.40625 3.85417 7.75 3.75 8.125 3.75H19.375C19.75 3.75 20.0938 3.85417 20.4062 4.0625C20.7188 4.27083 20.9479 4.55208 21.0938 4.90625L23.75 11.25V21.25C23.75 21.6042 23.63 21.9012 23.39 22.1412C23.15 22.3812 22.8533 22.5008 22.5 22.5H21.25ZM25 18.75V8L22.7188 2.5H9.59375L10.1562 1.15625C10.3021 0.802083 10.5312 0.520833 10.8438 0.3125C11.1562 0.104167 11.5 0 11.875 0H23.125C23.5 0 23.8438 0.104167 24.1562 0.3125C24.4688 0.520833 24.6979 0.802083 24.8438 1.15625L27.5 7.5V17.5C27.5 17.8542 27.38 18.1513 27.14 18.3913C26.9 18.6313 26.6033 18.7508 26.25 18.75H25Z" fill="#D31510"/>
</svg>
