<svg width="30" height="30" viewBox="0 0 30 30" fill="none" xmlns="http://www.w3.org/2000/svg">
<path d="M9.285 19.615C9.67333 19.615 10.0017 19.4792 10.27 19.2075C10.5392 18.935 10.6737 18.6046 10.6737 18.2162C10.6737 17.8271 10.5375 17.4979 10.265 17.2288C9.9925 16.9613 9.66208 16.8275 9.27375 16.8275C8.88458 16.8275 8.55542 16.9633 8.28625 17.235C8.01875 17.5075 7.885 17.8383 7.885 18.2275C7.885 18.6158 8.02083 18.9442 8.2925 19.2125C8.565 19.4808 8.89667 19.615 9.285 19.615ZM20.7275 19.615C21.1158 19.615 21.4442 19.4792 21.7125 19.2075C21.9808 18.935 22.115 18.6046 22.115 18.2162C22.115 17.8271 21.9792 17.4979 21.7075 17.2288C21.435 16.9613 21.1046 16.8275 20.7162 16.8275C20.3271 16.8275 19.9979 16.9633 19.7288 17.235C19.4613 17.5075 19.3275 17.8383 19.3275 18.2275C19.3275 18.6158 19.4633 18.9442 19.735 19.2125C20.0075 19.4808 20.3383 19.615 20.7275 19.615ZM5.625 25C5.4475 25 5.29917 24.94 5.18 24.82C5.06083 24.7 5.00083 24.5517 5 24.375V15.5338C5 15.4204 5.00667 15.3067 5.02 15.1925C5.0325 15.0783 5.05958 14.9667 5.10125 14.8575L7.48125 8.125C7.54208 7.92667 7.65917 7.7725 7.8325 7.6625C8.00667 7.55417 8.20042 7.5 8.41375 7.5H15.7212C15.8987 7.5 16.0471 7.56 16.1662 7.68C16.2854 7.8 16.3454 7.94875 16.3462 8.12625C16.3471 8.30375 16.2871 8.45208 16.1662 8.57125C16.0454 8.69042 15.8971 8.75 15.7212 8.75H8.61125L6.77 13.9425H15.7212C15.8987 13.9425 16.0471 14.0025 16.1662 14.1225C16.2854 14.2425 16.3454 14.3912 16.3462 14.5687C16.3471 14.7462 16.2871 14.8946 16.1662 15.0138C16.0454 15.1329 15.8971 15.1925 15.7212 15.1925H6.25V21.25H23.75V15.8175C23.75 15.64 23.81 15.4917 23.93 15.3725C24.05 15.2533 24.1987 15.1933 24.3762 15.1925C24.5537 15.1917 24.7021 15.2517 24.8213 15.3725C24.9404 15.4933 25 15.6417 25 15.8175V24.375C25 24.5525 24.94 24.7008 24.82 24.82C24.7 24.9392 24.5517 24.9992 24.375 25H24.0875C23.91 25 23.7612 24.94 23.6413 24.82C23.5212 24.7 23.4612 24.5517 23.4612 24.375V22.5H6.53875V24.375C6.53875 24.5525 6.47875 24.7008 6.35875 24.82C6.23875 24.9392 6.09042 24.9992 5.91375 25H5.625ZM20.4375 12.885C20.1458 12.885 19.8875 12.7725 19.6625 12.5475C19.4375 12.3225 19.3258 12.0646 19.3275 11.7737V8.3225C19.3275 8.03083 19.4396 7.7725 19.6637 7.5475C19.8879 7.3225 20.1458 7.21042 20.4375 7.21125H20.6V5.96125C20.6 5.33792 20.8129 4.81375 21.2387 4.38875C21.6646 3.96292 22.1892 3.75 22.8125 3.75C23.4358 3.75 23.9604 3.9625 24.3863 4.3875C24.8121 4.8125 25.0246 5.3375 25.0237 5.9625V7.2125H25.1875C25.4792 7.2125 25.7292 7.32458 25.9375 7.54875C26.1458 7.77292 26.25 8.03083 26.25 8.3225V11.7737C26.25 12.0654 26.1375 12.3237 25.9125 12.5487C25.6875 12.7737 25.43 12.8858 25.14 12.885H20.4375ZM21.5625 7.21125H24.0625V5.96125C24.0625 5.60708 23.9425 5.31042 23.7025 5.07125C23.4625 4.83208 23.1658 4.71208 22.8125 4.71125C22.4592 4.71042 22.1625 4.83042 21.9225 5.07125C21.6825 5.31208 21.5625 5.60875 21.5625 5.96125V7.21125Z" fill="#D31510"/>
</svg>
