<svg width="25" height="25" viewBox="0 0 25 25" fill="none" xmlns="http://www.w3.org/2000/svg">
<path d="M1.875 0.9375C1.875 0.68886 1.77623 0.450403 1.60041 0.274587C1.4246 0.098772 1.18614 0 0.9375 0C0.68886 0 0.450403 0.098772 0.274587 0.274587C0.098772 0.450403 0 0.68886 0 0.9375V20.1562C0 21.2751 0.444474 22.3482 1.23564 23.1394C2.02681 23.9305 3.09987 24.375 4.21875 24.375H23.4375C23.6861 24.375 23.9246 24.2762 24.1004 24.1004C24.2762 23.9246 24.375 23.6861 24.375 23.4375C24.375 23.1889 24.2762 22.9504 24.1004 22.7746C23.9246 22.5988 23.6861 22.5 23.4375 22.5H21.5625V5.625C21.5625 5.45089 21.514 5.28023 21.4225 5.13213C21.331 4.98402 21.2 4.86434 21.0443 4.78647C20.8885 4.70861 20.7142 4.67565 20.5408 4.69129C20.3674 4.70692 20.2018 4.77054 20.0625 4.875L13.0256 10.1531L7.91906 7.59937C7.79736 7.53856 7.66388 7.50497 7.52789 7.50092C7.39191 7.49687 7.25666 7.52247 7.13156 7.57594L1.875 9.82875V0.9375ZM1.875 11.8687L7.47 9.47062L12.7059 12.0881C12.8616 12.166 13.0359 12.199 13.2092 12.1834C13.3826 12.1679 13.5482 12.1044 13.6875 12L19.6875 7.5V22.5H4.21875C3.59715 22.5 3.00101 22.2531 2.56147 21.8135C2.12193 21.374 1.875 20.7779 1.875 20.1562V11.8687Z" fill="#D31510"/>
</svg>
