<svg width="49" height="54" viewBox="0 0 49 54" fill="none" xmlns="http://www.w3.org/2000/svg">
<path d="M21.875 1.875C10.83 1.875 1.875 10.7375 1.875 21.6725C1.875 25.405 2.9175 28.8975 4.7325 31.875" stroke="#B71C1C" stroke-width="3.75" stroke-linecap="round"/>
<path d="M30.625 24.375V29.375M38.125 24.375V29.375M30.625 4.375V9.375M38.125 4.375V9.375M26.875 13.125H21.875M26.875 20.625H21.875M46.875 13.125H41.875M46.875 20.625H41.875M36.875 9.375H31.875C29.5175 9.375 28.34 9.375 27.6075 10.1075C26.875 10.84 26.875 12.0175 26.875 14.375V19.375C26.875 21.7325 26.875 22.91 27.6075 23.6425C28.34 24.375 29.5175 24.375 31.875 24.375H36.875C39.2325 24.375 40.41 24.375 41.1425 23.6425C41.875 22.91 41.875 21.7325 41.875 19.375V14.375C41.875 12.0175 41.875 10.84 41.1425 10.1075C40.41 9.375 39.2325 9.375 36.875 9.375Z" stroke="#B71C1C" stroke-width="3.75" stroke-linecap="round" stroke-linejoin="round"/>
<path d="M29.3759 44.375L29.0509 45.9925C28.7009 47.76 28.5234 48.6425 28.1259 49.3425C27.5134 50.4214 26.5217 51.234 25.3434 51.6225C24.5809 51.875 23.6759 51.875 21.8759 51.875C20.0759 51.875 19.1709 51.875 18.4084 51.625C17.2298 51.2359 16.238 50.4223 15.6259 49.3425C15.2284 48.6425 15.0509 47.76 14.7009 45.9925L14.3759 44.375M10.3334 39.62C10.1034 38.93 9.98842 38.5825 10.0009 38.3025C10.0151 38.013 10.1128 37.7338 10.2823 37.4986C10.4518 37.2635 10.6857 37.0825 10.9559 36.9775C11.2159 36.875 11.5809 36.875 12.3059 36.875H31.4459C32.1734 36.875 32.5359 36.875 32.7959 36.975C33.0665 37.0801 33.3007 37.2615 33.4702 37.4972C33.6397 37.7328 33.7373 38.0125 33.7509 38.3025C33.7634 38.5825 33.6484 38.9275 33.4184 39.62C32.9934 40.8975 32.7809 41.5375 32.4534 42.055C31.7684 43.1365 30.6947 43.9141 29.4534 44.2275C28.8584 44.375 28.1884 44.375 26.8459 44.375H16.9059C15.5634 44.375 14.8909 44.375 14.2984 44.225C13.0576 43.9122 11.9839 43.1356 11.2984 42.055C10.9709 41.5375 10.7584 40.8975 10.3334 39.62Z" stroke="#B71C1C" stroke-width="3.75"/>
</svg>
