<svg width="25" height="25" viewBox="0 0 25 25" fill="none" xmlns="http://www.w3.org/2000/svg">
<path d="M24.1158 16.0734L18.0851 13.5168L15.535 12.4357C16.6487 11.8121 17.5533 10.8497 18.1452 9.69047C18.6394 8.72421 18.8948 7.67503 18.8942 6.61364C18.8942 5.98835 18.7825 5.39455 18.627 4.82162C17.8683 2.04529 15.4287 0 12.5 0C9.62676 0 7.22411 1.97239 6.41848 4.66966C6.23248 5.28845 6.10462 5.93188 6.10462 6.61364C6.10462 7.79748 6.41579 8.90124 6.94453 9.86125C7.55568 10.9749 8.46183 11.8932 9.56476 12.4836L7.12245 13.4942L0.89613 16.0714C0.355448 16.2966 0 16.8387 0 17.4441V23.5242C0 24.3391 0.638883 24.9997 1.42757 24.9997H10.675V20.3444C10.6767 20.2964 10.6925 20.2497 10.7208 20.2088L10.717 20.2068L12.2316 17.8754L12.2354 17.8774C12.2893 17.7953 12.3852 17.7371 12.5 17.7371C12.6148 17.7371 12.7107 17.7949 12.7646 17.8774L12.7661 17.8764L12.78 17.898L12.7861 17.9076L14.2807 20.2078L14.2788 20.2088C14.3072 20.2498 14.323 20.2966 14.3246 20.3447V25H23.572C24.3607 25 25 24.3395 25 23.5246V17.4441C25.0012 16.8408 24.6515 16.3038 24.1158 16.0734ZM14.2799 14.5145L14.2838 14.5165L12.7688 16.8479L12.7649 16.8459C12.7385 16.8878 12.7002 16.9228 12.6538 16.9474C12.6073 16.9719 12.5544 16.9852 12.5004 16.9859C12.4463 16.9852 12.3935 16.9719 12.347 16.9474C12.3006 16.9228 12.2622 16.8878 12.2358 16.8459L12.2339 16.8469L12.2185 16.8233L12.2139 16.8165L10.7193 14.5155L10.7208 14.5145C10.6924 14.4736 10.6766 14.4267 10.675 14.3786C10.675 14.2263 10.814 14.1028 10.9854 14.1028H14.0146C14.186 14.1028 14.325 14.2263 14.325 14.3786C14.3244 14.4267 14.3088 14.4738 14.2799 14.5145Z" fill="#B71C1C"/>
</svg>
