<svg width="25" height="25" viewBox="0 0 25 25" fill="none" xmlns="http://www.w3.org/2000/svg">
<path d="M21.8737 7.29297C22.15 7.29297 22.4149 7.40272 22.6103 7.59807C22.8056 7.79342 22.9154 8.05837 22.9154 8.33464C22.9154 8.6109 22.8056 8.87585 22.6103 9.07121C22.4149 9.26656 22.15 9.3763 21.8737 9.3763V19.793C22.15 19.793 22.4149 19.9027 22.6103 20.0981C22.8056 20.2934 22.9154 20.5584 22.9154 20.8346C22.9154 21.1109 22.8056 21.3759 22.6103 21.5712C22.4149 21.7666 22.15 21.8763 21.8737 21.8763H3.1237C2.84743 21.8763 2.58248 21.7666 2.38713 21.5712C2.19178 21.3759 2.08203 21.1109 2.08203 20.8346C2.08203 20.5584 2.19178 20.2934 2.38713 20.0981C2.58248 19.9027 2.84743 19.793 3.1237 19.793V9.3763C2.84743 9.3763 2.58248 9.26656 2.38713 9.07121C2.19178 8.87585 2.08203 8.6109 2.08203 8.33464C2.08203 8.05837 2.19178 7.79342 2.38713 7.59807C2.58248 7.40272 2.84743 7.29297 3.1237 7.29297H21.8737ZM7.29037 11.4596C7.0141 11.4596 6.74915 11.5694 6.5538 11.7647C6.35845 11.9601 6.2487 12.225 6.2487 12.5013V19.793H8.33203V12.5013C8.33203 12.225 8.22228 11.9601 8.02693 11.7647C7.83158 11.5694 7.56663 11.4596 7.29037 11.4596ZM12.4987 11.4596C12.2224 11.4596 11.9575 11.5694 11.7621 11.7647C11.5668 11.9601 11.457 12.225 11.457 12.5013V19.793H13.5404V12.5013C13.5404 12.225 13.4306 11.9601 13.2353 11.7647C13.0399 11.5694 12.775 11.4596 12.4987 11.4596ZM17.707 11.4596C17.4308 11.4596 17.1658 11.5694 16.9705 11.7647C16.7751 11.9601 16.6654 12.225 16.6654 12.5013V19.793H18.7487V12.5013C18.7487 12.225 18.639 11.9601 18.4436 11.7647C18.2483 11.5694 17.9833 11.4596 17.707 11.4596ZM18.7487 4.16797C19.025 4.16797 19.2899 4.27772 19.4853 4.47307C19.6806 4.66842 19.7904 4.93337 19.7904 5.20964C19.7904 5.4859 19.6806 5.75085 19.4853 5.9462C19.2899 6.14156 19.025 6.2513 18.7487 6.2513H6.2487C5.97243 6.2513 5.70748 6.14156 5.51213 5.9462C5.31678 5.75085 5.20703 5.4859 5.20703 5.20964C5.20703 4.93337 5.31678 4.66842 5.51213 4.47307C5.70748 4.27772 5.97243 4.16797 6.2487 4.16797H18.7487Z" fill="#B71C1C"/>
</svg>
