<svg width="25" height="25" viewBox="0 0 25 25" fill="none" xmlns="http://www.w3.org/2000/svg">
<path d="M15.0208 7.8138L16.6667 11.4596H8.33333L9.8125 7.8138H15.0208ZM9.375 12.5013C8.80208 12.5013 8.33333 12.9701 8.33333 13.543C8.33333 14.1159 8.80208 14.5846 9.375 14.5846C9.94792 14.5846 10.4167 14.1159 10.4167 13.543C10.4167 12.9701 9.94792 12.5013 9.375 12.5013ZM15.625 12.5013C15.0521 12.5013 14.5833 12.9701 14.5833 13.543C14.5833 14.1159 15.0521 14.5846 15.625 14.5846C16.1979 14.5846 16.6667 14.1159 16.6667 13.543C16.6667 12.9701 16.1979 12.5013 15.625 12.5013ZM21.875 5.20964V11.4596C21.875 17.2409 17.875 22.6471 12.5 23.9596C7.125 22.6471 3.125 17.2409 3.125 11.4596V5.20964L12.5 1.04297L21.875 5.20964ZM18.75 12.5013L16.5 7.29297C16.2917 6.6888 15.7083 6.2513 15.0208 6.2513H9.8125C9.125 6.2513 8.54167 6.6888 8.33333 7.29297L6.25 12.5013V16.668C6.25 17.2409 6.71875 17.7096 7.29167 17.7096H8.33333C8.90625 17.7096 9.375 17.2409 9.375 16.668V15.6263H15.625V16.668C15.625 17.2409 16.0937 17.7096 16.6667 17.7096H17.7083C18.2812 17.7096 18.75 17.2409 18.75 16.668V12.5013Z" fill="#B71C1C"/>
</svg>
