<svg width="25" height="25" viewBox="0 0 25 25" fill="none" xmlns="http://www.w3.org/2000/svg">
<path d="M5 20.2381H15C15.6875 20.2381 16.2762 20.0052 16.7662 19.5393C17.2562 19.0734 17.5008 18.5127 17.5 17.8571V14.2857H2.5V17.8571C2.5 18.5119 2.745 19.0726 3.235 19.5393C3.725 20.0059 4.31333 20.2389 5 20.2381ZM6.95375 18.5274C7.31792 18.1798 7.5 17.7579 7.5 17.2619C7.5 16.7659 7.31792 16.3444 6.95375 15.9976C6.58958 15.6508 6.14667 15.477 5.625 15.4762C5.10333 15.4754 4.66083 15.6492 4.2975 15.9976C3.93417 16.346 3.75167 16.7675 3.75 17.2619C3.74833 17.7563 3.93083 18.1782 4.2975 18.5274C4.66417 18.8766 5.10667 19.05 5.625 19.0476C6.14333 19.0452 6.58625 18.8718 6.95375 18.5274ZM15.7037 18.5274C16.0679 18.1798 16.25 17.7579 16.25 17.2619C16.25 16.7659 16.0679 16.3444 15.7037 15.9976C15.3396 15.6508 14.8967 15.477 14.375 15.4762C13.8533 15.4754 13.4108 15.6492 13.0475 15.9976C12.6842 16.346 12.5017 16.7675 12.5 17.2619C12.4983 17.7563 12.6808 18.1782 13.0475 18.5274C13.4142 18.8766 13.8567 19.05 14.375 19.0476C14.8933 19.0452 15.3362 18.8718 15.7037 18.5274ZM2.5 25C2.14583 25 1.84917 24.8857 1.61 24.6571C1.37083 24.4286 1.25083 24.146 1.25 23.8095V21.369C0.875 20.9722 0.572917 20.5309 0.34375 20.0452C0.114583 19.5595 0 19.0286 0 18.4524V7.14286C0 5.49603 0.802084 4.29087 2.40625 3.52738C4.01042 2.76389 6.54167 2.38175 10 2.38095C10.5417 2.38095 11.0521 2.38611 11.5312 2.39643C12.0104 2.40675 12.4687 2.43135 12.9062 2.47024C12.7604 2.84722 12.6562 3.22936 12.5937 3.61667C12.5312 4.00397 12.5 4.40555 12.5 4.82143C12.1458 4.80159 11.7654 4.7869 11.3587 4.77738C10.9521 4.76786 10.52 4.7627 10.0625 4.7619C8.25 4.7619 6.75 4.86111 5.5625 5.05952C4.375 5.25794 3.54167 5.55555 3.0625 5.95238H12.5937C12.6771 6.32936 12.7917 6.71627 12.9375 7.11309C13.0833 7.50992 13.2708 7.91667 13.5 8.33333H2.5V11.9048H16.3438L20 15.0298V18.4524C20 19.0278 19.8854 19.5587 19.6562 20.0452C19.4271 20.5317 19.125 20.973 18.75 21.369V23.8095C18.75 24.1468 18.63 24.4298 18.39 24.6583C18.15 24.8869 17.8533 25.0008 17.5 25H16.25C15.8958 25 15.5992 24.8857 15.36 24.6571C15.1208 24.4286 15.0008 24.146 15 23.8095V22.619H5V23.8095C5 24.1468 4.88 24.4298 4.64 24.6583C4.4 24.8869 4.10333 25.0008 3.75 25H2.5ZM19.11 5.60952C18.87 5.38174 18.75 5.09921 18.75 4.7619C18.75 4.4246 18.87 4.14206 19.11 3.91428C19.35 3.68651 19.6467 3.57222 20 3.57143C20.3533 3.57063 20.6504 3.68492 20.8912 3.91428C21.1321 4.14365 21.2517 4.42619 21.25 4.7619C21.2483 5.09762 21.1283 5.38055 20.89 5.61071C20.6517 5.84087 20.355 5.95476 20 5.95238C19.645 5.95 19.3483 5.83571 19.11 5.60952ZM22.2187 2.69286C22.8229 3.29841 23.125 4.02778 23.125 4.88095C23.125 5.51587 22.87 6.21547 22.36 6.97976C21.85 7.74405 21.0737 8.59206 20.0312 9.52381C18.9687 8.57143 18.1771 7.71825 17.6562 6.96428C17.1354 6.21032 16.875 5.51587 16.875 4.88095C16.875 4.02778 17.1771 3.29841 17.7812 2.69286C18.3854 2.0873 19.125 1.78492 20 1.78571C20.875 1.78651 21.6146 2.08889 22.2187 2.69286ZM20 11.9048C21.6875 10.5357 22.9429 9.27103 23.7662 8.11071C24.5896 6.9504 25.0008 5.87381 25 4.88095C25 3.53175 24.5158 2.38095 23.5475 1.42857C22.5792 0.47619 21.3967 0 20 0C18.6033 0 17.4212 0.47619 16.4537 1.42857C15.4862 2.38095 15.0017 3.53175 15 4.88095C15 5.87301 15.4117 6.9496 16.235 8.11071C17.0583 9.27182 18.3133 10.5365 20 11.9048Z" fill="#B71C1C"/>
</svg>
