<svg width="25" height="25" viewBox="0 0 25 25" fill="none" xmlns="http://www.w3.org/2000/svg">
<g clip-path="url(#clip0_4128_19566)">
<path d="M24.4134 8.59375H21.4901L20.6776 6.5625C19.8426 4.47412 17.8499 3.125 15.6004 3.125H9.39924C7.15021 3.125 5.15705 4.47412 4.3216 6.5625L3.5091 8.59375H0.586248C0.204901 8.59375 -0.0748846 8.95215 0.0178888 9.32178L0.310858 10.4937C0.375799 10.7544 0.610174 10.9375 0.879217 10.9375H1.8592C1.20344 11.5103 0.781072 12.3428 0.781072 13.2812V15.625C0.781072 16.4121 1.08185 17.1226 1.56232 17.6724V20.3125C1.56232 21.1753 2.26203 21.875 3.12482 21.875H4.68732C5.55012 21.875 6.24982 21.1753 6.24982 20.3125V18.75H18.7498V20.3125C18.7498 21.1753 19.4495 21.875 20.3123 21.875H21.8748C22.7376 21.875 23.4373 21.1753 23.4373 20.3125V17.6724C23.9178 17.123 24.2186 16.4126 24.2186 15.625V13.2812C24.2186 12.3428 23.7962 11.5103 23.1409 10.9375H24.1209C24.39 10.9375 24.6243 10.7544 24.6893 10.4937L24.9822 9.32178C25.0745 8.95215 24.7947 8.59375 24.4134 8.59375ZM7.22297 7.72314C7.57892 6.8335 8.44074 6.25 9.39924 6.25H15.6004C16.5589 6.25 17.4207 6.8335 17.7767 7.72314L18.7498 10.1562H6.24982L7.22297 7.72314ZM4.68732 15.6152C3.74982 15.6152 3.12482 14.9922 3.12482 14.0576C3.12482 13.123 3.74982 12.5 4.68732 12.5C5.62482 12.5 7.03107 13.9019 7.03107 14.8364C7.03107 15.771 5.62482 15.6152 4.68732 15.6152ZM20.3123 15.6152C19.3748 15.6152 17.9686 15.771 17.9686 14.8364C17.9686 13.9019 19.3748 12.5 20.3123 12.5C21.2498 12.5 21.8748 13.123 21.8748 14.0576C21.8748 14.9922 21.2498 15.6152 20.3123 15.6152Z" fill="#B71C1C"/>
</g>
<defs>
<clipPath id="clip0_4128_19566">
<rect width="25" height="25" fill="white"/>
</clipPath>
</defs>
</svg>
